# xmcd CD database file
#
# Track frame offsets:
#	150
#	45958
#	84827
#	123848
#	161267
#
# Disc length: 2953 seconds
#
# Revision: 0
# Processed by: cddbd v1.5.1PL2 Copyright (c) Steve Scherf et al.
# Submitted via: CDex 1.51
#
DISCID=260b8705
DTITLE=Dave Rivello - The Dave Rivello Ensemble
DYEAR=2002
DGENRE=Jazz
TTITLE0=Stealing Space
TTITLE1=(of) Time and Time Past
TTITLE2=Beyond the Fall
TTITLE3=Sometime
TTITLE4=The Path of Innocence
EXTD=YEAR: 2002
EXTT0=
EXTT1=
EXTT2=
EXTT3=
EXTT4=
PLAYORDER=
